<mxfile host="app.diagrams.net" modified="2020-10-06T14:46:19.333Z" agent="5.0 (Windows NT 10.0; Win64; x64) AppleWebKit/537.36 (KHTML, like Gecko) Chrome/85.0.4183.121 Safari/537.36" etag="cfMkWCuUWquBA63mGC3p" version="13.7.7" type="github">
  <diagram id="T44tYpkcpAEac0aUvZgz" name="Page-1">
    <mxGraphModel dx="1108" dy="482" grid="1" gridSize="10" guides="1" tooltips="1" connect="1" arrows="1" fold="1" page="1" pageScale="1" pageWidth="827" pageHeight="1169" math="0" shadow="0">
      <root>
        <mxCell id="0" />
        <mxCell id="1" parent="0" />
        <UserObject label="&amp;nbsp; &amp;nbsp; &amp;nbsp; &amp;nbsp; &amp;nbsp; &amp;nbsp; &amp;nbsp; &amp;nbsp; &amp;nbsp; &amp;nbsp;ECS Fargate Container" lucidchartObjectId="nGmCYq2n3VGc" id="7KQIYwNOaKePs-nZ6J8i-1">
          <mxCell style="html=1;whiteSpace=wrap;whiteSpace=wrap;fontSize=11;fontColor=#d86613;spacing=0;strokeColor=#d86613;strokeOpacity=100;fillOpacity=0;rounded=1;absoluteArcSize=1;arcSize=7.199999999999999;fillColor=#ffffff;dashed=1;dashPattern=8 8;strokeWidth=2;" vertex="1" zOrder="3" parent="1">
            <mxGeometry x="90" y="20" width="500" height="220" as="geometry" />
          </mxCell>
        </UserObject>
        <mxCell id="7KQIYwNOaKePs-nZ6J8i-7" value="" style="rounded=1;whiteSpace=wrap;html=1;" vertex="1" parent="1">
          <mxGeometry x="110" y="40" width="460" height="150" as="geometry" />
        </mxCell>
        <UserObject label="Docker" lucidchartObjectId="_-mCu694Trbw" id="7KQIYwNOaKePs-nZ6J8i-8">
          <mxCell style="html=1;whiteSpace=wrap;aspect=fixed;html=1;points=[];align=center;image;image=img/lib/mscae/Docker.svg;whiteSpace=wrap;fontSize=11;spacing=0;strokeColor=#5e5e5e;strokeOpacity=100;rounded=1;absoluteArcSize=1;arcSize=7.199999999999999;fillColor=#00AADA;strokeWidth=2;" vertex="1" zOrder="4" parent="1">
            <mxGeometry x="120" y="50" width="30" height="25.42" as="geometry" />
          </mxCell>
        </UserObject>
        <mxCell id="7KQIYwNOaKePs-nZ6J8i-9" value="" style="rounded=1;whiteSpace=wrap;html=1;" vertex="1" parent="1">
          <mxGeometry x="160" y="50" width="400" height="130" as="geometry" />
        </mxCell>
        <UserObject label="Node.js" lucidchartObjectId="Y~mCFliqMuH6" id="7KQIYwNOaKePs-nZ6J8i-11">
          <mxCell style="html=1;whiteSpace=wrap;shape=mxgraph.aws3.android;labelPosition=center;verticalLabelPosition=bottom;align=center;verticalAlign=top;whiteSpace=wrap;fontSize=13;fontColor=#333333;spacing=3;strokeColor=#5e5e5e;strokeOpacity=100;rounded=1;absoluteArcSize=1;arcSize=7.199999999999999;fillColor=#8cc64f;strokeWidth=2;" vertex="1" zOrder="5" parent="1">
            <mxGeometry x="170" y="60" width="32" height="40" as="geometry" />
          </mxCell>
        </UserObject>
        <mxCell id="7KQIYwNOaKePs-nZ6J8i-12" value="" style="rounded=1;whiteSpace=wrap;html=1;" vertex="1" parent="1">
          <mxGeometry x="220" y="60" width="320" height="110" as="geometry" />
        </mxCell>
        <mxCell id="7KQIYwNOaKePs-nZ6J8i-21" style="edgeStyle=orthogonalEdgeStyle;rounded=0;orthogonalLoop=1;jettySize=auto;html=1;" edge="1" parent="1" source="7KQIYwNOaKePs-nZ6J8i-13" target="7KQIYwNOaKePs-nZ6J8i-20">
          <mxGeometry relative="1" as="geometry">
            <Array as="points">
              <mxPoint x="390" y="95" />
              <mxPoint x="390" y="95" />
            </Array>
          </mxGeometry>
        </mxCell>
        <mxCell id="7KQIYwNOaKePs-nZ6J8i-13" value="" style="shape=image;verticalLabelPosition=bottom;labelBackgroundColor=#ffffff;verticalAlign=top;aspect=fixed;imageAspect=0;image=data:image/png,iVBORw0KGgoAAAANSUhEUgAAAC8AAAAsCAYAAAD1s+ECAAAOTUlEQVRoBc2ZCVTUVfvH7/BaASpklEuxmFpamuZaoJbaqyIqKYuOCC6YVirKMgMCCigIgiySK+7bq5VZYcetv/b2bpavWZkLuLEKyiLDPijL53/ujwExkBLP+Z//nPM997nP8n2+89w7w8wgVMk1NMOxOlSbMxGz/obwPISYewjh9hXC/TDC/RDC43NUngdRzf20Hp6fomqGz1B5toB5n6NS8JlhlfsG+5DBZ1g/OIRqVz6qo3WokmubQRh9VcPvoToOYtU5TOxjODXQDff3lvHZZ2+yIMydbgkLeTFEg5i4DeG0qQk2I5yawFnaW+p9zlsQTeHSsE9COCchXJqs0pZw3YqYnIgqLhXVMZpplJqF6ssamuEoiJAfMBoZSvLrLjjbebNzZ188tC48t3oeFprFiNEJiPFrEeNjH4Z9LKJFxCHsm2BCHEJBfJM1HuEg9wa8F4WIuYTqKM01finFH66lGb6pwzTsP1g4RPCUSyImTok87bAJ00nr6TQpkU6O67BwisPCKb51OMdj4ZzwaLgkYCEhcxR7HRYu67BwrcfzjtEYx15E9Q3NNR6uRai+qEUcA3ESxAkDjsDiX+ooLq2kqKwSXVklRaV6dKWVD2Dwy1jL0FNcVo+W44+qe+AvLqtkyg8gvqZeo9QpIU/icB1C9VUtpoFfYD4jCHP3MAXtHP0JOXCC/w+PpbuP0XVeDN2XfEL3JYl0XxhL55AvUR2uRjwTfQbLjk9j2aEd1sYC62cExkKwyt+7Tdrr6uqorqnllzPfsXv1Yi6dP0NNbR3U1bWJL1zrxWDrZ3mvnw2j+1ozsl8vRvSx4bnIUwiTZV9iafYM3ay6Yz7CHbN3PWn3hhNB6/e3qZleX8XdomL+u385afsW8OPBSErK9VRVVbWJb1H0Tl4YNR8rRx+sJi9lkO1I7F57mS7++xHGQcmK+K42ryIWJCO8vkN4JON36OJjN6utraW0tJSSsgruXz4M34dz/9pJ5e5LvzyVx324Jp1FuH+N+Pgk4sOj9LMbi21vK14IOIgwCTyCpfkzdLV5BaNZ+xDzv0a47EFz4L+P24fq6moqKiqUupzrFzh/dBt3Mq8p+/Lycmpqah6bU73xn4hpexHzDit/EPu+PYZhr1jygv9D4nth5L4bMe8LhNNONPvPPnYjOfmsrCxWLA/GZbobQf/Iwcl1OmuiosjPz2/T5NXrv0c470LM/Qyj2Qd4/a3RDOn1Is9rDjSdfC+M3HYg5nyOmLINzb4fHlu8LEhOTsbE2JhXe/em57ID9Oj9OuZmHfnxxx/bxKf+5DvE1B2I2Qcw8thHn6HvMrhHVyw0++ULtuHa9MJIvVVJEo5JaPaeaVOzsrIyIiMjGTZ0CN2GTuTt4SPYuHFjm1+w09edRry/FeGxH5X7HnoPHsGb3TvznJ8UH/BN/Z237oXRtC0I9/2IiZvQ7vlPm8Q3FBXrdNxIvUxFeVmDq02rOuFbxKTNCLe9qGbs5JWBw+lv/TydfBTxhslb98TIZZOSJCasR7P7X602q62rI69QR25+EbcL6tecvLs0oEBXhq5MT35RaaOvISbX7NsF5BeV/OHrQB1/EuGwATFjF6rp2+k1wJY3LJ+jk/c+hKl/E/HO6xHqXYjx69Du+mer4guKSkhJyyYt+w7pt+4oYgp1pfxZyPorN7IoLi1vtc+MuBMI+0TEtB2oXJPo8cZb9H2pE88u2Ycw0R7BytyYrnLyU2TSdsTYOLS7/tEqqZy2nPzV9Fv8+/xlcvPvtprfUlCeQKGupKVQo08dewwxLkH5mKxy2kT3fkN5rZs55l57EabaI1g+axDvGF//+XrMWrQ7vm8kaMkor9CTcjOb9Ft5ZOTkk5GTR9qtP4+bWbdJTcumsupeS/SNPvXao4j3YpXvDaopG7B5fTC9u3TEfPEehImmifjJsYipmxCj1qDd/vdGgkcZpeWV3CnUkXe3mLzCYsNafyLyVFrD7YIiyiv1j6Ju9Kujv0GMiUZM2YDq/USs+wzklRfaY7ZwVxPxVj0wcohBvL8B8U4k2m2nGwlaMnQl5VxITVem3vBCzMrNJyu3gOzbhX8ImXfpeiZlFZUt0Tf61GuSEaOiEI6foJqcgOWrA+hpYULHevHf1F8bq54YTVijJIkR4Wi3nmokaMmQ7xTXMnI4f/kGP1+5yc9XbnAhNa2l1Ef67hToKPijOx/1NWJkBGLSOowcYnmxV39e7vQMHT6Wk/c1XBs5+fGrERMTELZhaJP+55FNZUBXWs6laxmkpt1S3jXk/b+anqOcRGZOPn+EjFt5XLr2JyYf+SVi+EqEQxwq+xi69eyHzbNP0eHDHQhj32TD5HtgNDa8/vvk2yFot3zbqngZrKiD4vs1lFTXNkJ3r4Y/g6Kqalq/MPXt1RGHEbahqMavRTUuii4vv46V2V8wnb8dYerTZPJjwhDjYhBDg9Bsbv2bVF1pKWRlQs6t5sjOgswMyMqqz7mV3TxH1mVlUmf4FPqoSanDDyGGLUeMjUL11wg62/ThpQ4qTD+Q4r2biB+9QkkSg5eh3XT8UXyKvyI4mNLhdpSNH/cQSsf+lbIp71M+cyZlU6dSPn06ZQ4OlI4b+1CerCu1taUyIb7VPuqVnyOGBiLei0A1ZiXPW71KN1OB6bxtvxP/bjBiTARioBbNxmOtkt5xmkpml85k9+zxELJsrLk1aCD5ixaSN9ON21OnKPus7jYP5cm6TIvnKFz4cat91Cs/RQzyR4xehWpUKJ1temPZ8S90mLcDYbq0YfIvYzRyGWLUSsQAPzQbjrZKmrc6gpsjhpMxfjxZDhPINkDaWfbjyXacRNakiWSNG0uWvb2Sk+Vg35iXMX4cN+3sKEza0mofdehBxJt+iHdDUb2znC42fbAya0eHD3YiTKT4TsZ0tXwZo+FaxDshiDe80axvXXzTjroKPUXllQpKKquQ0JVVUKa/R3FlFWVV9xVfib6KwtIKZP6ffahDDiD6+yBGrkA1IkiZvJV5O9pL8aZLmoi30yBGLkf0XYL/H0y+afOrmbn8+Ns1fk5J48L1DH66cpOzl67z2/VMxX8l/RbnU9I4d/kGZy5cJbdQ17S8Vdst9ACi71LE8GBUdsvobN0bKb7DPCneq4n4Yb4I2yBEn0X4JR5plfT/KugatBfx2mLE28tQvaWlS6N4eecbxXfHaOhSxNsBiDe9sZm4ijMX0sktKCE3v1hBTr4OBXk6ciTk3mDn5ul4CPnyM74Bv4vJGhlr5FN4ig37+l65+SWcPJOCxahAxCAfxDAtqmF+dLZ+tX7ynnLyi+XkTehq2R2jwV6IoRrEUD9Efy/EQG86jAig/Qh/2o/Q0n64hvZ2En4G+NLe7new9aG9hF0TPHLfUNvAJ1cN7YdrlZ6KhgFeqIb6Iob4ohrsTWcrg/i5cvKLkhvFqwZ5IYZoEUP86iGf8ZveDzDAG9EMSxEDnhSStymHYT/QGzHYBzHIFzHITzmBLlavYGX+FO3nKOINk3/Jhqf7udOuv/zFbE7L6N/gn91y/FF1bfbLPg295ip2F6ueWD1rEC88D2MqBKamppgYYGxiTIeOHTA3N8fc3Awzs46KLVczM7OHfB2lT8mReTJmTseODfkPfA2xB/VmyNoH+fW5DXkNHHI1NjFRtEmNCoRAuG5GTNuTyrb1scTHx5OQEE9cbCxJWzYTGhqKq6srarWaWbNmMWPGDDzc3fHwcFds6ZMxDw8PZs6cqUDaMq9pvru7O25ubsi1kUs9Q6mbLTmmq5k9e3Z9zMOjMW/OnNk4OTkTHBzE1qQtxMXFKvqkzq2JMczd/QuCaj13CwvIyMggPT0dna6IktIyFvkuZ5FvMGvXbcHLL4To+E2EhMcSsCKS1TGfsFQbSkzCZgJD1xC8Mpqo2A14B4QpeYEhawgKjWZVVALa4NVEx21EExRBcFi0wiF5ZL5PwEoiohMJi4xX/GGr49EEhSv8sl72WLA4gPyCu5SVlpCWlqboLMjPg1o9IuPmNc6dO8f58+e58Ouvyg+l/sERDB/jyOgJLgSFRrFsxWreGTuV9Zt34Og6B8+PfAgKjcR29GTi1ycx03MR6lkfERmTqOSFr0lgkU8Qk5w9CFsdy7jJagJDo9AErcJ+ykxkfJLzLBYs1hKwPEKxI9Yk4DZnIbM+WEJwWBSu7gv4eOkypYeXbzAlxcVcvHhR0Xnu3E/cuJqCOHv2LD/99JOCoqK7bN62h4G245jo5ME7Y50U4vkLNXyw0E+xfQPCmD1/KROmzEQTuJL3p83F3XMxSzQrGDtJzbyPffH8yBeHqR74+IfiMnM+U9WeLPQOxN7RjUXegSzxW85oexdFnOSSA1mxKkZZp7l/iLc2ROGyG+3IJKdZ9Bsymqi165VbIYcs9Urd4urVq6SkpJCbm0NaeqZCHBgSyb4Dh5TprV23ie27/qbYm7buJv6TJCUnLCKWb099rwjQBoUrp7PYJ4iA5auRT1AKlKe2VLMCv2Ur8Q8OZ8EiLVt37GPnnoN8tCSAoNA17Nx7EJ+AUGITN7N99wHlScoBbtu5X6n//PARQsLX4uW7nGvXb3Lnzh1Fr9Qt5G+LDSguLqZKr6f6/n30+kru3atSUFlpsKuq0Bvs+/fuKT9nV1ffR1dUpNzHzMwMMjLSlXup2OnpyDUzo96flZnJzRs3KCjIp6ammqoqPXq9nvv37ym8ci95ZT9pS0i7tqZa0VRSUqJc6wa9QgafBPI/HtnZWY3TSE1NVWx5mk0h/Q2nLN8cZN2T9JW1IuXKFZ4EqSlXuPjbBX75+WcFKVcuczU1pRlk3q+/1Of8duECcv8kfWWtOHH8GE+C48ePcfLEcb49eYKTJ09w+vQp/v7dab5rAmV/+pQSV/JOHH+ing16/xdkDYvnQWaTOwAAAABJRU5ErkJggg==;" vertex="1" parent="1">
          <mxGeometry x="240" y="70" width="53.41" height="50" as="geometry" />
        </mxCell>
        <mxCell id="7KQIYwNOaKePs-nZ6J8i-14" value="&lt;div&gt;User&lt;/div&gt;&lt;div&gt;Authentication&lt;/div&gt;&lt;div&gt;/Authorization&lt;/div&gt;" style="text;html=1;strokeColor=none;fillColor=none;align=center;verticalAlign=middle;whiteSpace=wrap;rounded=0;" vertex="1" parent="1">
          <mxGeometry x="211.7" y="130" width="110" height="20" as="geometry" />
        </mxCell>
        <mxCell id="7KQIYwNOaKePs-nZ6J8i-18" value="User Interface" style="text;html=1;strokeColor=none;fillColor=none;align=center;verticalAlign=middle;whiteSpace=wrap;rounded=0;" vertex="1" parent="1">
          <mxGeometry x="410" y="145" width="120" height="20" as="geometry" />
        </mxCell>
        <mxCell id="7KQIYwNOaKePs-nZ6J8i-27" value="" style="edgeStyle=orthogonalEdgeStyle;rounded=0;orthogonalLoop=1;jettySize=auto;html=1;entryX=0.681;entryY=-0.028;entryDx=0;entryDy=0;entryPerimeter=0;" edge="1" parent="1" source="7KQIYwNOaKePs-nZ6J8i-20" target="7KQIYwNOaKePs-nZ6J8i-22">
          <mxGeometry relative="1" as="geometry" />
        </mxCell>
        <mxCell id="7KQIYwNOaKePs-nZ6J8i-28" value="" style="edgeStyle=orthogonalEdgeStyle;rounded=0;orthogonalLoop=1;jettySize=auto;html=1;entryX=0.844;entryY=0.012;entryDx=0;entryDy=0;entryPerimeter=0;" edge="1" parent="1" source="7KQIYwNOaKePs-nZ6J8i-20" target="7KQIYwNOaKePs-nZ6J8i-23">
          <mxGeometry relative="1" as="geometry">
            <Array as="points">
              <mxPoint x="440" y="200" />
              <mxPoint x="324" y="200" />
            </Array>
          </mxGeometry>
        </mxCell>
        <mxCell id="7KQIYwNOaKePs-nZ6J8i-20" value="" style="shape=image;verticalLabelPosition=bottom;labelBackgroundColor=#ffffff;verticalAlign=top;aspect=fixed;imageAspect=0;image=data:image/png,iVBORw0KGgoAAAANSUhEUgAAAFAAAABSCAYAAADD2VOmAAAPbElEQVR4Ae2c93MbyZXH/Yfe+Sf7HzjvuXxb591VqHXtrlZr+yxRWkmMosQcQAJEzmkwyDnHQQ6MYCa/V69BUIREgtSSsEAWUfXhAD09wMy33+vp6feav8P961oK/O5aR98fjHsBr2kE9wLeC3hNBa55+L0F3gt4TQWuefi9Bd4LeE0Frnn4JxZ4dHSEVCoFt9sNn8/XdwSDQcRiMUQikdNzC4VCp2V+v5+Vf1zP6/Wy8nw+f03JOg/vEPDw8BB2ux1WqxWJRIIJmUwm0Q9Qo2YyGXZ+8/PzUKvVSKfTyGazsNlsWFhYgFKpZOedy+VYvbm5OWi1WnYcHRuPx2EwGODxeECGchOvDgFXV1fZD1SrVZTLZZRKpb6hUqnA6XRiamoKExMTeP78OcRiMfOU8fFxVj4wMAAS1+Vysc+Tk5MYGHiOxcVF0PG1Wg0kLgktCMJN6Nf5JNJoNNhJkvVRK9GJ9APUndB5jI6O4uXLF0yUX375BY8fP8bg4CB+/fVXvHjxAk+fPsWjR4/w7NkzvHz5EiTozz//jAcPHkCn04HcmryJrJcaY39//9oidlggtZDRaGQuYbFYmCuTO/cDHMdhZGQEDx88xsOHf8PXX3+DB989ZAI+evQ9Hjz4Hl9//S2+/fY7Zp0PH37P6v3P19/gu+8eMFcmV+d5HiKRiHna5ubmzQpIbttuHYfDgX7C5XJCp9NjePA9hgdn8eLZCBbmFpkQo0OTGBmew68vxjE3uwC9nupNsHovn49iYUHELJisjq5penoaKpUKa2trOD4+vpaIHRZIfR6ZOrkvuU2/QXdSh90Jq9kO3uYAfSZcTjc4ix123gmv1wevj+q5YDXz4DkHu/vSNbWvi24uJCB1WTcqIFmgyWRifUUgEEA/Qv1YKNSifX6fU0bH0B27ZwJS3xePxxCNRhAOh+8U0WgUBPWBdCfuiQU6HHbIZGoMPBvG0Jt3GHwzzqD3jMF3GGZQX0T9zARG2lBfxPoj6pNajA5PgjEyidGPGBuZBGN0CmOjU3h7yjTejp4wNo23Y9MYJ962mcH429lT3o3P4izvx2cxwZjDxLs5TBLv5zE+Og2ZVMWGPz2xQBorUb83+HoC42OzsFp5GAzmEywwGFoYDRYYDdZzMRmsMBkvgoPJdD5mE4eumDmYT7HBbP6AxWzDx1D/x7DwsFp48DYnVsQK1hDLy2J2s7xxCyQBvV4Pa1m93oJqtYJ8XjghD3oM+kC7/N+zFfICLiIvCPgYGigzTo4rlopwu72YnVliFkijjZ4ISM+Sk+8XodOaUCoV2aMSPS7ddqjhnU4PFuYlWFmR9s4Cg8EApidFMOgtqFTKrVZst+Yt3haLZIE+LC5IIZPKeilgEDNTSzAZOdRqVRQKhTsBDdF83gCWF2WQyXokIPV5wVAQM9NLMJtsqNdroJa7C1D/7vcHsbzUUwGroLm12ZlldueqN+p9Mxtz3ZkhmmEKBEIQL8shl8mh1vTgJkI/QgLOz0rAWR1orDbYtBaZ/22HJkpCwTAbysjlCmg0mpu/C58KOCcBz7uwtr4GKrsL0JAlEolBuqKCopcChsMhLMyvwG53Y319nU1CUutdlUajjtU+ZGN9jc1IK+QqqJQK6HRabGysX2smhg7umI0hS6PnX9GCFE6HBxsbG6jX61eCCbfaQFYoIZEqIpnuLzJCBW5vFKIlDUTLCswvShCKJFAs1VCuNBilch3FUotSpY5ytVVeKNXQbO6cK/YnAkYiYSyJZHC7/Nja2gJN81+F9bVVuPxZyA0JmBwCLM7+wOwUYHXlwbkLUJuTUOjjMNhSkKo9kGs8UOl9ECtckChdUBv8UOp8rEyh82JZ4YRU7YZS78OKOoCsUPtExA4ByU0p2kW3eo8ngGazySYdaeKxG5sb68zqFIYk1jZ2P/mRL11Ac36cK4OhaQ6DU1bwnuzpKTn8eYzM2vFq0gqLI8PKDw4BuSGK15Mchmd4xNM1FCtbWFYEsLHROYt9roDiZQV83iC2t7dZP0h9YTe2mxvgnCmEEzVsbe8ilq0imCohlCp/cSLZKgz2BP4+pMXTIQ0eD8jwlx9FMDqTsPmyePpGi19GtHg8IMdXf1uEwZGEyhLFk9dqPBnU4Jt/SvDwn1J2XWY+DbcvjqPDg9MGOFdAiVgJvz+EnZ0d1g9SX3gRFFfY2lyHyRaDjk9hTuPFq3lr3/BmkcOTIQ3+8nQJf/xmAn/86wT+889j+HFIjeeTZvz3jyL84a+t8v/4agw/vFHhpyEN/vTDAiv/w/++x+///BZiYwgqcwwagwPNrQ9WeI6ANFZSIRiIYHd3FyRQN6if3Npcg84cxuC8HaOSNg6MSr48YxIHhkU8fhrU4KsnS4xHLxQYEvEYFdtb5T8v4U9PlvBgQMbKBxdseDggx3/9JMJXT5bxwxs1xlZceD1lhlRhxOpqvZsFhtlYKRyKsbAf9YPdIDcnFyYBh0VOLOj9WND1GXo/FnUBiHQhiHRhiPTB1nmelC/pw2wf1WHnr/ezOiJ9CMSinsoDeD5ugHhFi3qtcrGA4UgYMqkG0UgcBwcHrB9kIpFQ50BuvrO9CZ0ljGm5Hyp7DApbtO9Q8jFoHAkGvW+fo9J2frnqpL7aEQfVV/JxDM1YsSzRXCJgOAyFTINYLAFK9WACkUgXQG6+u7MFvTUCsT4KRyTfIizA0WfYwwKIj8/rvPJ22Wn9SAHvluxYuoqASrkW8XiS5Y8wgUikC9jb28PebhMGWxQaPgWzJ4MVYxRSU6zvkZliYJhjkDHikJk7kZvj7DqM7ixmZW4mYK2rC4fDUCm1SCXTzM8p/aEb5Ob7ezsw8XHYgwW8XXRiaNKIOQmPGbHtFkHn22JWwmNWYmfMrdjxds6C4TkXREo/xCsaXCqgWqVHOt0abJJA3SA3P9jfhdmRQDBRw7zcB5vdi3QyjkQ8dsuIIhHvJJWMwe0JYE4ewIouguUrCag2IJPJMQskgbpBaWKHB3uwOFNICRuQaELg7D6kknHEY7FbTzIRh8sTgFgThsaawPKKtpsFtiYTtBojctlWIiIJ1A16TDo63AfnSiNT2MCKNgSbw4d0Ksly9SjT6zaTSiXh8QQh1Uahs6VaAlYvHMa0BKSInJArMAskgbpBlY6PDmDzZJAtbkKqC8HuCiGbSbMETUqMvM1kMmn4AlFIdTHouasKqDNBEH6jgPownO4IhFz2NDOUskNvK7lcFoFQDHJ9HHpbCmKpFrXLLFCvMyH/mwWMwOmJIi/kbn0smWLhgpBDMJQAzTQZ7JnuAlZrLRemmHA+X/wMF94H780hV9qCVB+ByxtFIS+wdFpKqb3NUGZGKJKEyphqCSjToVYtM23oT8dkQntGmnJbCoXSZwloJwHLJGAUHn8cpVLhTBrI2ZSQ2/W+WCwgEktDbU7D6MxA3DMBfS0BZfoofMEkKpXSnYgnl8slxOJZaKwZmK4qIGVJFT/TAh1+AUK5CbkhBn8ohWq1v7L8f2tcmdJb4skctFwWZlcWErn+che2WDgUiy0/7zaEoX30Oj7chzOQh1BpQmmMIxTJoF6vsqUFlBFwm6H0lmQ6Dz2Xg9mZu5qAlBdYKn2mgMGWgCpTApGYwCYdrxoK7ed6FG3MZIsw2gSYXZ8hYKXyaQSKmdu5f47gDheZBapNCUTjeaytNa4UDr1q2PRL1VulUG2uBCOfh9l9iYDkapTawXF2cFYe4VAUoWCEEQ5FwAhT7vQHKNofCgQgUTnYXVhjSSKWKGB9fZWlTlBGwG1mbW0VuXwFZkfhcgukjpYWtGQyWQT8Qfj9AUbAH2CfqSwQ6CQYDMHn9WBJYYNQ3oKOSyORLmFzc71rKLRbmLSf9lH2Qr5YA+cswnKZC1PokpKvaaEKJVoGAv4zSx3o/adQPa/HBZHcxixQx2WQypbRbG5eGMm7KMLXj+VbW5solhrgXKXLBaRZZ1pHQQv6Xr16xdab0Ro0WnN2EbT/X//3D/zw9yGkhFUY+RwyuSq2t7e6RvO6Rfr6aV+zuYVSeRW8uwLLZX0gTZxSP0gL+6RSKVuQQqt6LmN2ZgrPX08ika3BbBeQy9exu7vdNZrXLdLXT/t2drZRra3D4alcboF0g6UYB3X69CBN83i0uPlyIliSmZHM1ZmAQqGBvb2dc6N450X2+rlsd3cHtfoGnL4aLG6h+ziwPUKhATJZI4l5UTCpXU51WjGRMJK5BksqKpTXcHBw+bHt7+jn7f7+HhqrW3D561cXsC3k52w5VxzxTA0WRx7FygYOD/dZA7CoHUXubikHB/tYW99mApqclzzKfY5gnXUp+ymOcLICs72ASq0J4KhrLKVbnKWf9h0fH2Fzaw9ufwN6e+ZqLtwpzlU+tQQMJMqw2POoNbbpCblrLKVbnKWf9tF1bDX3mYBaPg2JostkwlWkOr9OS0BPtAiTPY/6HROweSKgmkv2VkBXqMCeGeurd8sCSUCXrwGFJQGJwnDxdNb51nWV0pYF2v0CDLyAxirlE98dFyYBnd46ZKZ4bwW0erMw2AQ01u6WgNvbJGANK8ZYbwU0uTPQcwJW75yAB3B46xDrIljpmQu749A7UtBaSUBKNL87LryzcwiHpw6RNtxbAdV8Ahpz7k4KaPfUsajusYAKaxxqcxZr63fPAu3uOuZVwd5aoMwShdqSw8bGHnNhGsXfdqgr2ts7BFngjMLfWwElpjCUxizWTwTs+kRxfISjNudmgFEfenWOj47xgSMcH53HmUSpjvpnj+18T4+k+7tH4F01TMl9vRPQ5k5AbIxAoklCby3A5i6Dc5Vhc5XBn4e7DP4Eu7uMTiqwu6uwe1o4PFW0qMHhqbEhBQ0rzuLy1vCBOlzeOly+D7h9dbj9ZwjU4T6DJ1CH9wy+QAN+ItiAx1uH3lpiAkp79SgXiWfwXuqH0paGwpqAzJKA3JK8GtYk5GdQWFM4hUtB8RFKLoXupKHkPg8Vl8YptjRUtjTUJ1sNn4bSJuDNtJn9rwWKFbdfHbkx7cLfsm00apAoLBics2JC5sG03H1jTMnd6EDmxtS/C7kb76UePHurxuuh97BxVrb4sq3RjQm43WwiEg5CJBLjzdAYXrx8jYEXr+4GL1/j9ZtBSMTLbDEmhRzarxsTkObwKPgdDgVhMhmhUimhVCruBGqVkl0Txcwp3EHX2n7dmID0hfTFtHaOhKT/sXAX/tsHXQPFy+ma6NrOikfXfKMCtlulnZDUdRhz7tCle0L7l/q+9vW0r+/sticCnv2Bu/7+XsBrtvD/A5GjNrwlxnokAAAAAElFTkSuQmCC;" vertex="1" parent="1">
          <mxGeometry x="414" y="62" width="80" height="82" as="geometry" />
        </mxCell>
        <UserObject label="Amazon Elasticsearch Service" lucidchartObjectId="u9nCuZHImNF5" id="7KQIYwNOaKePs-nZ6J8i-22">
          <mxCell style="html=1;whiteSpace=wrap;shape=mxgraph.aws4.resourceIcon;resIcon=mxgraph.aws4.elasticsearch_service;labelPosition=center;verticalLabelPosition=bottom;align=center;verticalAlign=top;strokeColor=#ffffff;whiteSpace=wrap;fontSize=13;fontColor=#333333;spacing=0;strokeOpacity=100;rounded=1;absoluteArcSize=1;arcSize=7.199999999999999;fillColor=#693cc5;strokeWidth=2;" vertex="1" zOrder="9" parent="1">
            <mxGeometry x="380" y="270" width="72" height="72" as="geometry" />
          </mxCell>
        </UserObject>
        <UserObject label="Amazon DynamoDB Accelerator" lucidchartObjectId="idoCVaXd4Pof" id="7KQIYwNOaKePs-nZ6J8i-23">
          <mxCell style="html=1;whiteSpace=wrap;shape=mxgraph.aws3.db_accelerator;labelPosition=center;verticalLabelPosition=bottom;align=center;verticalAlign=top;whiteSpace=wrap;fontSize=13;fontColor=#333333;spacing=3;strokeColor=#5e5e5e;strokeOpacity=100;rounded=1;absoluteArcSize=1;arcSize=7.199999999999999;fillColor=#2e73b8;strokeWidth=2;" vertex="1" zOrder="10" parent="1">
            <mxGeometry x="270" y="270" width="64" height="84" as="geometry" />
          </mxCell>
        </UserObject>
        <mxCell id="7KQIYwNOaKePs-nZ6J8i-24" value="" style="endArrow=classic;html=1;" edge="1" parent="1" target="7KQIYwNOaKePs-nZ6J8i-1">
          <mxGeometry width="50" height="50" relative="1" as="geometry">
            <mxPoint x="390" y="240" as="sourcePoint" />
            <mxPoint x="440" y="190" as="targetPoint" />
          </mxGeometry>
        </mxCell>
        <mxCell id="7KQIYwNOaKePs-nZ6J8i-31" value="" style="edgeStyle=orthogonalEdgeStyle;rounded=0;orthogonalLoop=1;jettySize=auto;html=1;entryX=0;entryY=0.75;entryDx=0;entryDy=0;" edge="1" parent="1" source="7KQIYwNOaKePs-nZ6J8i-29" target="7KQIYwNOaKePs-nZ6J8i-13">
          <mxGeometry relative="1" as="geometry">
            <Array as="points">
              <mxPoint x="151" y="108" />
            </Array>
          </mxGeometry>
        </mxCell>
        <UserObject label="user" lucidchartObjectId="bLnCp1mwXJGq" id="7KQIYwNOaKePs-nZ6J8i-29">
          <mxCell style="html=1;whiteSpace=wrap;shape=mxgraph.aws3.user;labelPosition=center;verticalLabelPosition=bottom;align=center;verticalAlign=top;whiteSpace=wrap;fontSize=13;fontColor=#333333;spacing=3;strokeColor=#5e5e5e;strokeOpacity=100;rounded=1;absoluteArcSize=1;arcSize=7.199999999999999;fillColor=#d2d3d3;strokeWidth=2;" vertex="1" zOrder="6" parent="1">
            <mxGeometry x="10" y="70" width="52" height="84" as="geometry" />
          </mxCell>
        </UserObject>
      </root>
    </mxGraphModel>
  </diagram>
</mxfile>
